<svg xmlns:xlink="http://www.w3.org/1999/xlink" data-v-5aa64d27="" xmlns="http://www.w3.org/2000/svg" width="44" height="45" viewBox="0 0 44 45" aria-labelledby="EscalabilidadeServicos-element" role="presentation" class="card__icon"><title id="EscalabilidadeServicos-element">EscalabilidadeServicos</title><g fill="currentColor"><g transform="translate(0 .496)" fill="none" fill-rule="evenodd"><circle fill="#19A487" cx="22" cy="22" r="22"></circle><path d="M21.043 11.478c-1.199 0-2.22.783-2.608 1.855H10.84v1.855h7.594c.387 1.073 1.41 1.855 2.608 1.855 1.2 0 2.221-.782 2.61-1.855H33.1v-1.855h-9.449c-.388-1.072-1.41-1.855-2.609-1.855zm0 1.855c.522 0 .928.406.928.928a.916.916 0 0 1-.928.927.916.916 0 0 1-.927-.927c0-.522.406-.928.927-.928zm6.493 5.566c-1.199 0-2.22.782-2.608 1.855H10.84v1.855h14.087c.387 1.072 1.409 1.855 2.608 1.855 1.2 0 2.221-.783 2.609-1.855H33.1v-1.855h-2.956c-.388-1.073-1.41-1.855-2.609-1.855zm0 1.855c.522 0 .928.405.928.927a.916.916 0 0 1-.928.928.916.916 0 0 1-.927-.928c0-.522.405-.927.927-.927zm-10.203 5.565c-1.199 0-2.22.782-2.608 1.855H10.84v1.855h3.884c.387 1.072 1.41 1.855 2.608 1.855 1.2 0 2.221-.783 2.609-1.855h13.16v-1.855h-13.16c-.388-1.073-1.41-1.855-2.609-1.855zm0 1.855c.522 0 .928.406.928.927a.916.916 0 0 1-.928.928.916.916 0 0 1-.927-.928c0-.521.406-.927.927-.927z" fill="#FFFFFF" fill-rule="nonzero"></path></g></g></svg>