<svg xmlns:xlink="http://www.w3.org/1999/xlink" data-v-d42c3fa2="" xmlns="http://www.w3.org/2000/svg" width="9" height="14" viewBox="0 0 9 14" aria-labelledby="ArrowRight-element" role="presentation" class="footer-links__item__icon"><title id="ArrowRight-element">ArrowRight</title><g fill="#979797"><path d="M1.423 2.888l1.244 1.234 1.512 1.5 1.301 1.29c.211.21.42.425.636.631l.01.01V5.95l-.522.517a1441963.25 1441963.25 0 01-2.757 2.735l-1.3 1.29c-.212.21-.427.418-.636.631l-.01.01c-.207.205-.334.509-.334.8 0 .277.123.61.334.8.217.198.503.345.807.332.302-.013.588-.115.807-.332l.52-.517 1.245-1.234 1.512-1.5L7.093 8.19c.212-.209.427-.417.636-.63l.01-.01a1.144 1.144 0 000-1.602l-.522-.517-1.244-1.234-1.512-1.5-1.302-1.29c-.21-.21-.42-.424-.635-.631l-.01-.01a1.18 1.18 0 00-.806-.332c-.28 0-.614.123-.807.332-.2.215-.348.499-.334.8.013.304.116.587.334.804l.522.518z" fill-rule="nonzero" fill="#979797"></path></g></svg>