<svg xmlns="http://www.w3.org/2000/svg" xmlns:xlink="http://www.w3.org/1999/xlink" viewBox="0 0 1150 780" width="1150" height="780" preserveAspectRatio="xMidYMid meet" style="width: 100%; height: 100%; transform: translate3d(0px, 0px, 0px); content-visibility: visible;"><defs><clipPath id="__lottie_element_2"><rect width="1150" height="780" x="0" y="0"></rect></clipPath></defs><g clip-path="url(#__lottie_element_2)"><g transform="matrix(1,0,0,1,583.135009765625,433.89300537109375)" opacity="1" style="display: block;"><g opacity="1" transform="matrix(3,0,0,3,0,0)"><path stroke-linecap="butt" stroke-linejoin="miter" fill-opacity="0" stroke-miterlimit="4" stroke-dasharray=" 3 6" stroke-dashoffset="0" stroke="#AAAAAA" stroke-opacity="1" stroke-width="1" d=" M162,25.378999710083008 C162,25.378999710083008 130.90499877929688,-50.970001220703125 130.90499877929688,-50.970001220703125 C130.90499877929688,-50.970001220703125 52.88800048828125,92.26499938964844 52.88800048828125,92.26499938964844 C52.88800048828125,92.26499938964844 -44.832000732421875,-92.26499938964844 -44.832000732421875,-92.26499938964844 C-44.832000732421875,-92.26499938964844 -118.60099792480469,51.37900161743164 -118.60099792480469,51.37900161743164 C-118.60099792480469,51.37900161743164 -162,-20.263999938964844 -162,-20.263999938964844 C-162,-20.263999938964844 -162,-20.263999938964844 -162,-20.263999938964844"></path></g></g><g transform="matrix(1,0,0,1,575,390)" opacity="1" style="display: block;"><g opacity="1" transform="matrix(1,0,0,1,0,0)"><path stroke-linecap="butt" stroke-linejoin="miter" fill-opacity="0" stroke-miterlimit="4" stroke="#FFFFFF" stroke-opacity="1" stroke-width="6px" d="M0 0"></path></g></g><g transform="matrix(2,0,0,2,96.40499877929688,297.2080078125)" opacity="1" style="display: block;"><g opacity="1" transform="matrix(3,0,0,3,0,0)"><path fill="#19A487" fill-opacity="1" d=" M-4.791999816894531,-1.180999994277954 C-3.990999937057495,0.7549999952316284 -2.1019999980926514,2.0179998874664307 -0.007000000216066837,2.0179998874664307 C2.8510000705718994,2.0179998874664307 5.168000221252441,-0.29600000381469727 5.171999931335449,-3.1540000438690186 C5.175000190734863,-5.249000072479248 3.9149999618530273,-7.139999866485596 1.9800000190734863,-7.943999767303467 C0.04500000178813934,-8.748000144958496 -2.184000015258789,-8.307000160217285 -3.6670000553131104,-6.826000213623047 C-5.150000095367432,-5.34499979019165 -5.5929999351501465,-3.117000102996826 -4.791999816894531,-1.180999994277954z M4.002999782562256,-14.168000221252441 C8.661999702453613,-12.480999946594238 11.763999938964844,-8.053999900817871 11.758000373840332,-3.0989999771118164 C11.751999855041504,-1.00600004196167 11.1850004196167,1.0470000505447388 10.118000030517578,2.8480000495910645 C9.592000007629395,3.634000062942505 9.022000312805176,4.389999866485596 8.40999984741211,5.111999988555908 C8.40999984741211,5.111999988555908 1.694000005722046,14.029999732971191 1.694000005722046,14.029999732971191 C1.2920000553131104,14.5600004196167 0.6650000214576721,14.871000289916992 0,14.871000289916992 C-0.6650000214576721,14.871000289916992 -1.2920000553131104,14.5600004196167 -1.694000005722046,14.029999732971191 C-1.694000005722046,14.029999732971191 -8.520000457763672,4.980999946594238 -8.520000457763672,4.980999946594238 C-9.08899974822998,4.184999942779541 -9.657999992370605,3.6429998874664307 -10.104000091552734,2.881999969482422 C-10.104000091552734,2.881999969482422 -10.138999938964844,2.8410000801086426 -10.138999938964844,2.8410000801086426 C-12.64799976348877,-1.4320000410079956 -12.208999633789062,-6.818999767303467 -9.041000366210938,-10.628999710083008 C-5.873000144958496,-14.439000129699707 -0.656000018119812,-15.854999542236328 4.002999782562256,-14.168000221252441z"></path></g></g><g transform="matrix(2,0,0,2,225.7729949951172,565.2369995117188)" opacity="1" style="display: block;"><g opacity="1" transform="matrix(3,0,0,3,0,0)"><path fill="#19A487" fill-opacity="1" d=" M-2.7049999237060547,-0.6349999904632568 C-2.250999927520752,0.4569999873638153 -1.1829999685287476,1.1670000553131104 0,1.1640000343322754 C0.7739999890327454,1.1640000343322754 1.5169999599456787,0.8560000061988831 2.063999891281128,0.30799999833106995 C2.6110000610351562,-0.23999999463558197 2.9170000553131104,-0.984000027179718 2.9149999618530273,-1.7580000162124634 C2.9149999618530273,-2.940999984741211 2.203000068664551,-4.00600004196167 1.1100000143051147,-4.458000183105469 C0.017000000923871994,-4.909999847412109 -1.2410000562667847,-4.658999919891357 -2.0759999752044678,-3.822000026702881 C-2.9110000133514404,-2.984999895095825 -3.1589999198913574,-1.7269999980926514 -2.7049999237060547,-0.6349999904632568z M2.263000011444092,-7.980000019073486 C4.894000053405762,-7.025000095367432 6.642000198364258,-4.5229997634887695 6.632999897003174,-1.7239999771118164 C6.623000144958496,-0.546999990940094 6.300000190734863,0.6069999933242798 5.693999767303467,1.6169999837875366 C5.394000053405762,2.059000015258789 5.071000099182129,2.484999895095825 4.72599983215332,2.8929998874664307 C4.72599983215332,2.8929998874664307 0.9399999976158142,7.9079999923706055 0.9399999976158142,7.9079999923706055 C0.7129999995231628,8.204999923706055 0.36000001430511475,8.378999710083008 -0.014000000432133675,8.378999710083008 C-0.3880000114440918,8.378999710083008 -0.7400000095367432,8.204999923706055 -0.9670000076293945,7.9079999923706055 C-0.9670000076293945,7.9079999923706055 -4.815999984741211,2.803999900817871 -4.815999984741211,2.803999900817871 C-5.138000011444092,2.3580000400543213 -5.460000038146973,2.0490000247955322 -5.714000225067139,1.6239999532699585 C-7.135000228881836,-0.7870000004768372 -6.890999794006348,-3.8299999237060547 -5.103000164031982,-5.982999801635742 C-3.315000057220459,-8.13599967956543 -0.36800000071525574,-8.9350004196167 2.263000011444092,-7.980000019073486z"></path></g></g><g transform="matrix(2,0,0,2,448.8330078125,101.18299865722656)" opacity="1" style="display: block;"><g opacity="1" transform="matrix(3,0,0,3,0,0)"><path fill="#19A487" fill-opacity="1" d=" M-3.940999984741211,-0.9679999947547913 C-3.2799999713897705,0.6240000128746033 -1.7239999771118164,1.6610000133514404 0,1.6579999923706055 C2.3469998836517334,1.6540000438690186 4.249000072479248,-0.24799999594688416 4.252999782562256,-2.5950000286102295 C4.25600004196167,-4.318999767303467 3.2190001010894775,-5.875 1.6269999742507935,-6.535999774932861 C0.03500000014901161,-7.197000026702881 -1.7999999523162842,-6.833000183105469 -3.0190000534057617,-5.613999843597412 C-4.23799991607666,-4.394999980926514 -4.6020002365112305,-2.559999942779541 -3.940999984741211,-0.9679999947547913z M3.2899999618530273,-11.654999732971191 C7.122000217437744,-10.269000053405762 9.673999786376953,-6.629000186920166 9.67199993133545,-2.553999900817871 C9.654000282287598,-0.8169999718666077 9.166000366210938,0.8830000162124634 8.258999824523926,2.365000009536743 C7.823999881744385,3.009999990463257 7.355000019073486,3.630000114440918 6.853000164031982,4.223999977111816 C6.853000164031982,4.223999977111816 1.3650000095367432,11.53600025177002 1.3650000095367432,11.53600025177002 C1.034000039100647,11.973999977111816 0.5180000066757202,12.232000350952148 -0.03099999949336052,12.232000350952148 C-0.5799999833106995,12.232000350952148 -1.0959999561309814,11.973999977111816 -1.4270000457763672,11.53600025177002 C-1.4270000457763672,11.53600025177002 -7.038000106811523,4.099999904632568 -7.038000106811523,4.099999904632568 C-7.511000156402588,3.440999984741211 -7.9720001220703125,2.996000051498413 -8.342000007629395,2.371999979019165 C-8.342000007629395,2.371999979019165 -8.342000007629395,2.3369998931884766 -8.342000007629395,2.3369998931884766 C-10.404999732971191,-1.1779999732971191 -10.043000221252441,-5.607999801635742 -7.438000202178955,-8.741999626159668 C-4.833000183105469,-11.87600040435791 -0.5419999957084656,-13.041000366210938 3.2899999618530273,-11.654999732971191z"></path></g></g><g style="display: block;" transform="matrix(1.9999955892562866,0,0,1.9999955892562866,745.0650024414062,681.1740112304688)" opacity="1"><g opacity="1" transform="matrix(3,0,0,3,0,0)"><path fill="#19A487" fill-opacity="1" d=" M-3.556999921798706,-0.8690000176429749 C-2.9600000381469727,0.5669999718666077 -1.5570000410079956,1.5010000467300415 -0.0020000000949949026,1.496999979019165 C2.11299991607666,1.496999979019165 3.828000068664551,-0.21799999475479126 3.828000068664551,-2.3329999446868896 C3.8320000171661377,-3.888000011444092 2.8980000019073486,-5.290999889373779 1.4620000123977661,-5.888000011444092 C0.026000000536441803,-6.485000133514404 -1.6269999742507935,-6.156000137329102 -2.7260000705718994,-5.057000160217285 C-3.825000047683716,-3.9579999446868896 -4.1539998054504395,-2.305000066757202 -3.556999921798706,-0.8690000176429749z M0.7720000147819519,-10.940999984741211 C5.252999782562256,-10.541000366210938 8.694000244140625,-6.796000003814697 8.713000297546387,-2.296999931335449 C8.699999809265137,-0.75 8.27400016784668,0.7649999856948853 7.478000164031982,2.0920000076293945 C7.084000110626221,2.6730000972747803 6.660999774932861,3.2320001125335693 6.208000183105469,3.7679998874664307 C6.208000183105469,3.7679998874664307 1.2319999933242798,10.357000350952148 1.2319999933242798,10.357000350952148 C0.9340000152587891,10.746999740600586 0.47099998593330383,10.97599983215332 -0.019999999552965164,10.97599983215332 C-0.5109999775886536,10.97599983215332 -0.9750000238418579,10.746999740600586 -1.2730000019073486,10.357000350952148 C-1.2730000019073486,10.357000350952148 -6.328999996185303,3.6600000858306885 -6.328999996185303,3.6600000858306885 C-6.752999782562256,3.065000057220459 -7.177000045776367,2.6600000858306885 -7.510000228881836,2.1010000705718994 C-8.567999839782715,0.3140000104904175 -8.944999694824219,-1.7949999570846558 -8.572999954223633,-3.8380000591278076 C-7.757999897003174,-8.262999534606934 -3.7090001106262207,-11.340999603271484 0.7720000147819519,-10.940999984741211z"></path></g></g><g style="display: block;" transform="matrix(2.000067710876465,0,0,2.000067710876465,975.4080200195312,224.8249969482422)" opacity="1"><g opacity="1" transform="matrix(3,0,0,3,0,0)"><path fill="#19A487" fill-opacity="1" d=" M-4.260000228881836,-2.5859999656677246 C-4.260000228881836,-0.2329999953508377 -2.3529999256134033,1.6740000247955322 0,1.6740000247955322 C0,1.6740000247955322 -0.007000000216066837,1.6740000247955322 -0.007000000216066837,1.6740000247955322 C1.1239999532699585,1.6759999990463257 2.2100000381469727,1.2280000448226929 3.009999990463257,0.42899999022483826 C3.809999942779541,-0.3700000047683716 4.260000228881836,-1.4550000429153442 4.260000228881836,-2.5859999656677246 C4.260000228881836,-4.939000129699707 2.3529999256134033,-6.84499979019165 0,-6.84499979019165 C-2.3529999256134033,-6.84499979019165 -4.260000228881836,-4.939000129699707 -4.260000228881836,-2.5859999656677246z M3.296999931335449,-11.654000282287598 C7.131999969482422,-10.263999938964844 9.682000160217285,-6.617000102996826 9.67199993133545,-2.5380001068115234 C9.666000366210938,-0.8069999814033508 9.192000389099121,0.8899999856948853 8.300000190734863,2.374000072479248 C7.877999782562256,3.0190000534057617 7.420000076293945,3.640000104904175 6.927999973297119,4.232999801635742 C6.927999973297119,4.232999801635742 1.3930000066757202,11.538999557495117 1.3930000066757202,11.538999557495117 C1.062000036239624,11.97700023651123 0.5460000038146973,12.234000205993652 -0.003000000026077032,12.234000205993652 C-0.5519999861717224,12.234000205993652 -1.0679999589920044,11.97700023651123 -1.3990000486373901,11.538999557495117 C-1.3990000486373901,11.538999557495117 -7.02400016784668,4.117000102996826 -7.02400016784668,4.117000102996826 C-7.497000217437744,3.4579999446868896 -7.965000152587891,3.01200008392334 -8.335000038146973,2.388000011444092 C-8.335000038146973,2.388000011444092 -8.335000038146973,2.3469998836517334 -8.335000038146973,2.3469998836517334 C-10.404999732971191,-1.1679999828338623 -10.04699993133545,-5.604000091552734 -7.440000057220459,-8.741999626159668 C-4.833000183105469,-11.880000114440918 -0.5379999876022339,-13.043999671936035 3.296999931335449,-11.654000282287598z"></path></g></g><g style="display: block;" transform="matrix(1.9998811483383179,0,0,1.9998811483383179,1068.072021484375,483.7300109863281)" opacity="1"><g opacity="1" transform="matrix(3,0,0,3,0,0)"><path fill="#19A487" fill-opacity="1" d=" M-2.7070000171661377,-0.6610000133514404 C-2.253000020980835,0.4320000112056732 -1.184999942779541,1.1430000066757202 -0.0020000000949949026,1.1399999856948853 C1.6080000400543213,1.1399999856948853 2.9140000343322754,-0.16599999368190765 2.9140000343322754,-1.7760000228881836 C2.9170000553131104,-2.9590001106262207 2.2060000896453857,-4.0269999504089355 1.1130000352859497,-4.480999946594238 C0.019999999552965164,-4.934999942779541 -1.2380000352859497,-4.685999870300293 -2.075000047683716,-3.8489999771118164 C-2.9119999408721924,-3.01200008392334 -3.1610000133514404,-1.753999948501587 -2.7070000171661377,-0.6610000133514404z M0.5870000123977661,-8.32699966430664 C3.997999906539917,-8.02299976348877 6.617000102996826,-5.171999931335449 6.631999969482422,-1.7480000257492065 C6.622000217437744,-0.5709999799728394 6.297999858856201,0.5820000171661377 5.691999912261963,1.5920000076293945 C5.392000198364258,2.0339999198913574 5.070000171661377,2.4600000381469727 4.724999904632568,2.868000030517578 C4.724999904632568,2.868000030517578 0.9380000233650208,7.882999897003174 0.9380000233650208,7.882999897003174 C0.7110000252723694,8.180000305175781 0.35899999737739563,8.354000091552734 -0.014999999664723873,8.354000091552734 C-0.3889999985694885,8.354000091552734 -0.7419999837875366,8.180000305175781 -0.968999981880188,7.882999897003174 C-0.968999981880188,7.882999897003174 -4.816999912261963,2.7860000133514404 -4.816999912261963,2.7860000133514404 C-5.138999938964844,2.3329999446868896 -5.461999893188477,2.0239999294281006 -5.716000080108643,1.5989999771118164 C-6.520999908447266,0.23899999260902405 -6.808000087738037,-1.3660000562667847 -6.525000095367432,-2.9210000038146973 C-5.90500020980835,-6.289000034332275 -2.8239998817443848,-8.630999565124512 0.5870000123977661,-8.32699966430664z"></path></g></g></g></svg>