<svg xmlns:xlink="http://www.w3.org/1999/xlink" data-v-10e5e5d2="" xmlns="http://www.w3.org/2000/svg" width="77.646" height="21.979" viewBox="0 0 77.646 21.979" aria-labelledby="LogoUpCities-element" role="presentation" class="secondLine__title"><title id="LogoUpCities-element">LogoUpCities</title><g fill="#139A7E"><g fill="#139A7E" fill-rule="nonzero"><path d="M23.21 7.914a5.245 5.245 0 0 0-1.705-1.236 5.35 5.35 0 0 0-4.111-.083 4.964 4.964 0 0 0-1.37.88l-.395-1.006h-1.982v15.51h2.477v-5.37c.363.338.78.614 1.233.817.572.254 1.244.383 2 .383a5.118 5.118 0 0 0 2.148-.453 5.193 5.193 0 0 0 1.705-1.237 5.716 5.716 0 0 0 1.12-1.846 6.454 6.454 0 0 0 0-4.51 5.752 5.752 0 0 0-1.12-1.849zm-1.257 5.482a3.728 3.728 0 0 1-.647 1.13 3.004 3.004 0 0 1-.962.754c-.74.366-1.608.334-2.35.083a2.505 2.505 0 0 1-.96-.601 2.83 2.83 0 0 1-.647-1.083c-.158-.45-.238-1.008-.238-1.662 0-.607.08-1.135.238-1.57a3.03 3.03 0 0 1 .652-1.086c.266-.283.595-.5.96-.633.38-.136.78-.205 1.184-.204.403-.002.802.089 1.164.266.369.174.697.424.963.733.28.33.5.707.647 1.115a4.135 4.135 0 0 1 0 2.758h-.004zM9.263 1.409v10.338c0 .448-.088.891-.26 1.305a3.628 3.628 0 0 1-.704 1.106c-.296.32-.651.577-1.046.76a3.093 3.093 0 0 1-2.557 0 3.276 3.276 0 0 1-1.055-.758 3.624 3.624 0 0 1-.707-1.107 3.42 3.42 0 0 1-.256-1.305V4.889L0 6.3v5.447a5.884 5.884 0 0 0 .473 2.34c.304.711.737 1.36 1.278 1.91a6.001 6.001 0 0 0 1.89 1.29 5.959 5.959 0 0 0 4.659 0 5.994 5.994 0 0 0 1.894-1.29c.54-.55.974-1.199 1.278-1.91.315-.74.475-1.536.469-2.34L11.927 0 9.263 1.409zM37.56 13.285a5.708 5.708 0 0 1-1.788 1.585 4.582 4.582 0 0 1-2.284.597 4.716 4.716 0 0 1-2.031-.446 5.222 5.222 0 0 1-1.655-1.23 6.09 6.09 0 0 1-1.126-1.824A6.1 6.1 0 0 1 29.8 5.694a5.306 5.306 0 0 1 1.655-1.25 4.63 4.63 0 0 1 2.033-.456 4.335 4.335 0 0 1 1.993.477 6.06 6.06 0 0 1 1.652 1.233l.293-.013 1.484-1.89-.13-.121a8.97 8.97 0 0 0-2.41-1.573 7.042 7.042 0 0 0-2.879-.603 7.438 7.438 0 0 0-3.094.657 8.079 8.079 0 0 0-2.524 1.78 8.574 8.574 0 0 0-1.697 2.62 8.4 8.4 0 0 0 0 6.382c.4.972.976 1.863 1.699 2.627a8.064 8.064 0 0 0 2.523 1.78c.971.438 2.025.662 3.09.658a7.14 7.14 0 0 0 3.356-.82 8.748 8.748 0 0 0 2.637-2.105l.116-.139-1.747-1.675-.29.022zM42.409 1.72a1.553 1.553 0 0 0-1.566 1.565c-.006.42.157.823.453 1.12a1.553 1.553 0 0 0 2.225 0c.296-.297.46-.7.453-1.12a1.553 1.553 0 0 0-1.566-1.566h.001zM41.153 6.789V17.78h2.557l-.023-10.992zM49.023 3.955h-2.535v2.881l-1.547.438v1.805h1.55v5.186c0 1.003.157 1.798.466 2.362.31.565.732.983 1.241 1.213.434.192.905.288 1.38.283a4.2 4.2 0 0 0 .309-.012 7.448 7.448 0 0 0 1.84-.388l.172-.058-.511-1.911-.169.022a8.614 8.614 0 0 1-1.1.087c-.277 0-.5-.044-.661-.13a.68.68 0 0 1-.324-.365c-.071-.182-.108-.442-.108-.77v-5.52h2.879v-2.29h-2.882V3.955zM53.373 6.789V17.78h2.557l-.023-10.992zM54.63 1.72a1.553 1.553 0 0 0-1.567 1.565c-.006.42.157.823.453 1.12a1.556 1.556 0 0 0 2.226 0c.296-.297.46-.7.453-1.12A1.553 1.553 0 0 0 54.63 1.72zM66.499 8.163a4.335 4.335 0 0 0-1.668-1.23 5.464 5.464 0 0 0-2.077-.387 4.886 4.886 0 0 0-2.07.449 5.38 5.38 0 0 0-1.688 1.23 5.999 5.999 0 0 0-1.568 4.071 5.716 5.716 0 0 0 5.729 5.753 6.528 6.528 0 0 0 2.523-.48 5.996 5.996 0 0 0 1.956-1.281l.137-.137-1.609-1.605-.136.136a3.747 3.747 0 0 1-2.653 1.073 3.359 3.359 0 0 1-1.12-.188 3.276 3.276 0 0 1-.963-.535 3.644 3.644 0 0 1-1.134-1.593h7.818v-.194c0-1.15-.13-2.156-.388-2.99-.259-.833-.624-1.543-1.089-2.092zm-3.745.718c.349-.007.696.06 1.018.194a2.428 2.428 0 0 1 1.282 1.325c.098.24.167.492.205.75h-5.134c.078-.27.187-.53.324-.774.166-.296.378-.564.627-.794.233-.215.499-.39.788-.518.28-.123.584-.185.89-.183zM77.445 13.33a2.441 2.441 0 0 0-.707-.947c-.324-.277-.757-.532-1.29-.76a13.039 13.039 0 0 0-1.976-.628 19.136 19.136 0 0 1-.57-.153 2.679 2.679 0 0 1-.537-.216 1.391 1.391 0 0 1-.398-.32.6.6 0 0 1-.142-.404.626.626 0 0 1 .13-.392c.098-.13.22-.241.358-.328.148-.093.309-.164.477-.209.164-.045.334-.069.504-.07.468 0 .837.105 1.096.311.253.196.433.471.51.782l.046.186 2.29-.553-.033-.18a2.976 2.976 0 0 0-.485-1.165 3.586 3.586 0 0 0-.89-.886 4.51 4.51 0 0 0-4.071-.518c-.46.165-.89.408-1.267.72-.353.293-.647.65-.867 1.052a2.689 2.689 0 0 0-.33 1.3c-.01.443.093.882.3 1.275a3 3 0 0 0 .805.923c.357.269.749.487 1.165.648.455.178.922.325 1.397.44.185.045.41.098.67.155.25.056.492.137.725.242.208.092.4.218.566.373a.605.605 0 0 1 .194.458.672.672 0 0 1-.12.399 2.143 2.143 0 0 1-.323.362c-.361.293-.818.44-1.359.44a2.61 2.61 0 0 1-1.175-.258c-.327-.164-.602-.486-.818-.959l-.08-.175-2.15.97.055.166c.263.793.776 1.435 1.526 1.907s1.598.705 2.543.705a5.676 5.676 0 0 0 1.747-.263c.511-.159.988-.41 1.409-.74.387-.309.705-.694.934-1.133.226-.437.343-.922.341-1.414a3.1 3.1 0 0 0-.2-1.142z" fill="#139A7E"></path></g></g></svg>