<svg xmlns:xlink="http://www.w3.org/1999/xlink" data-v-5aa64d27="" xmlns="http://www.w3.org/2000/svg" width="44" height="45" viewBox="0 0 44 45" aria-labelledby="SegurancaCidadao-element" role="presentation" class="card__icon"><title id="SegurancaCidadao-element">SegurancaCidadao</title><g fill="currentColor"><g transform="translate(0 .496)" fill="none" fill-rule="evenodd"><circle fill="#19A487" cx="22" cy="22" r="22"></circle><path d="M21.918 10.203c-2.266 0-3.792.893-5.161 1.636-1.369.744-2.612 1.385-4.91 1.385h-1.006v1.007c0 7.773 2.627 12.832 5.287 15.892 2.659 3.06 5.412 4.186 5.412 4.186l.378.126.378-.126s2.753-1.102 5.412-4.154c2.66-3.053 5.287-8.123 5.287-15.924v-1.007h-1.007c-2.285 0-3.54-.641-4.909-1.385-1.369-.743-2.895-1.636-5.161-1.636zm0 2.014c1.762 0 2.773.618 4.186 1.385 1.191.649 2.773 1.27 4.814 1.479-.192 6.813-2.446 11.144-4.72 13.752-2.061 2.364-3.792 3.151-4.28 3.367-.492-.22-2.219-1.026-4.28-3.398-2.274-2.616-4.528-6.94-4.72-13.721 2.05-.209 3.623-.83 4.815-1.48 1.412-.766 2.423-1.384 4.185-1.384z" fill="#FFFFFF" fill-rule="nonzero"></path></g></g></svg>