<svg xmlns="http://www.w3.org/2000/svg" xmlns:xlink="http://www.w3.org/1999/xlink" viewBox="0 0 3420 1050" width="3420" height="1050" preserveAspectRatio="xMidYMid meet" style="width: 100%; height: 100%; transform: translate3d(0px, 0px, 0px); content-visibility: visible;"><defs><clipPath id="__lottie_element_28"><rect width="3420" height="1050" x="0" y="0"></rect></clipPath></defs><g clip-path="url(#__lottie_element_28)"><g transform="matrix(1,0,0,1,1726.0400390625,570.9450073242188)" opacity="1" style="display: block;"><g opacity="1" transform="matrix(3,0,0,3,0,0)"><path stroke-linecap="butt" stroke-linejoin="miter" fill-opacity="0" stroke-miterlimit="4" stroke-dasharray=" 5 10" stroke-dashoffset="0" stroke="#8A8A8A" stroke-opacity="1" stroke-width="1" d=" M528.3469848632812,55.08000183105469 C528.3469848632812,55.08000183105469 438.71099853515625,-87.70999908447266 438.71099853515625,-87.70999908447266 C438.71099853515625,-87.70999908447266 72.052001953125,137.91099548339844 72.052001953125,137.91099548339844 C72.052001953125,137.91099548339844 -105.76799774169922,-137.91099548339844 -105.76799774169922,-137.91099548339844 C-105.76799774169922,-137.91099548339844 -394.64599609375,55.08000183105469 -394.64599609375,55.08000183105469 C-394.64599609375,55.08000183105469 -528.3469848632812,-23.920000076293945 -528.3469848632812,-23.920000076293945"></path></g></g><g transform="matrix(1,0,0,1,1710,525)" opacity="1" style="display: block;"><g opacity="1" transform="matrix(1,0,0,1,0,0)"><path stroke-linecap="butt" stroke-linejoin="miter" fill-opacity="0" stroke-miterlimit="4" stroke="#FFFFFF" stroke-opacity="1" stroke-width="8px" d="M0 0"></path></g></g><g transform="matrix(2,0,0,2,142.052001953125,403.5409851074219)" opacity="1" style="display: block;"><g opacity="1" transform="matrix(3,0,0,3,0,0)"><path fill="#19A487" fill-opacity="1" d=" M-6.986000061035156,-1.7209999561309814 C-5.817999839782715,1.1009999513626099 -3.065000057220459,2.941999912261963 -0.009999999776482582,2.941999912261963 C4.156000137329102,2.941999912261963 7.533999919891357,-0.4320000112056732 7.539999961853027,-4.5980000495910645 C7.544000148773193,-7.6529998779296875 5.706999778747559,-10.409000396728516 2.885999917984009,-11.581000328063965 C0.06499999761581421,-12.753000259399414 -3.184000015258789,-12.107999801635742 -5.34499979019165,-9.949999809265137 C-7.50600004196167,-7.791999816894531 -8.154000282287598,-4.543000221252441 -6.986000061035156,-1.7209999561309814z M5.835000038146973,-20.65399932861328 C12.626999855041504,-18.19499969482422 17.148000717163086,-11.741000175476074 17.139999389648438,-4.51800012588501 C17.131000518798828,-1.4670000076293945 16.305999755859375,1.5269999504089355 14.75,4.1519999504089355 C13.982999801635742,5.297999858856201 13.152000427246094,6.400000095367432 12.260000228881836,7.452000141143799 C12.260000228881836,7.452000141143799 2.4700000286102295,20.45199966430664 2.4700000286102295,20.45199966430664 C1.8839999437332153,21.225000381469727 0.9700000286102295,21.67799949645996 0,21.67799949645996 C-0.9700000286102295,21.67799949645996 -1.8839999437332153,21.225000381469727 -2.4700000286102295,20.45199966430664 C-2.4700000286102295,20.45199966430664 -12.420000076293945,7.26200008392334 -12.420000076293945,7.26200008392334 C-13.25,6.1020002365112305 -14.079999923706055,5.311999797821045 -14.729999542236328,4.202000141143799 C-14.729999542236328,4.202000141143799 -14.779999732971191,4.142000198364258 -14.779999732971191,4.142000198364258 C-18.437999725341797,-2.0869998931884766 -17.79800033569336,-9.9399995803833 -13.180000305175781,-15.494999885559082 C-8.562000274658203,-21.049999237060547 -0.9570000171661377,-23.113000869750977 5.835000038146973,-20.65399932861328z"></path></g></g><g transform="matrix(2,0,0,2,542.1019897460938,651.322998046875)" opacity="1" style="display: block;"><g opacity="1" transform="matrix(3,0,0,3,0,0)"><path fill="#19A487" fill-opacity="1" d=" M-5.744999885559082,-1.4110000133514404 C-4.781000137329102,0.9100000262260437 -2.5139999389648438,2.4210000038146973 0,2.4170000553131104 C3.421999931335449,2.4110000133514404 6.193999767303467,-0.3610000014305115 6.199999809265137,-3.7829999923706055 C6.203999996185303,-6.296999931335449 4.691999912261963,-8.564000129699707 2.371000051498413,-9.527999877929688 C0.05000000074505806,-10.491999626159668 -2.624000072479248,-9.961000442504883 -4.401000022888184,-8.184000015258789 C-6.177999973297119,-6.4070000648498535 -6.709000110626221,-3.7320001125335693 -5.744999885559082,-1.4110000133514404z M4.796000003814697,-16.989999771118164 C10.383000373840332,-14.968999862670898 14.102999687194824,-9.663999557495117 14.100000381469727,-3.7230000495910645 C14.074000358581543,-1.190999984741211 13.36299991607666,1.2869999408721924 12.039999961853027,3.447000026702881 C11.406000137329102,4.38700008392334 10.722000122070312,5.291999816894531 9.989999771118164,6.1570000648498535 C9.989999771118164,6.1570000648498535 1.9900000095367432,16.816999435424805 1.9900000095367432,16.816999435424805 C1.5080000162124634,17.454999923706055 0.7549999952316284,17.83099937438965 -0.04500000178813934,17.83099937438965 C-0.8450000286102295,17.83099937438965 -1.5980000495910645,17.454999923706055 -2.0799999237060547,16.816999435424805 C-2.0799999237060547,16.816999435424805 -10.260000228881836,5.9770002365112305 -10.260000228881836,5.9770002365112305 C-10.949999809265137,5.017000198364258 -11.619999885559082,4.367000102996826 -12.15999984741211,3.4570000171661377 C-12.15999984741211,3.4570000171661377 -12.15999984741211,3.4070000648498535 -12.15999984741211,3.4070000648498535 C-15.166999816894531,-1.7170000076293945 -14.640999794006348,-8.173999786376953 -10.843000411987305,-12.743000030517578 C-7.045000076293945,-17.312000274658203 -0.7910000085830688,-19.01099967956543 4.796000003814697,-16.989999771118164z"></path></g></g><g transform="matrix(1.9999920129776,0,0,1.9999920129776,1410.842041015625,103.28399658203125)" opacity="1" style="display: block;"><g opacity="1" transform="matrix(3,0,0,3,0,0)"><path fill="#19A487" fill-opacity="1" d=" M-3.943000078201294,-0.925000011920929 C-3.2799999713897705,0.6669999957084656 -1.7239999771118164,1.7009999752044678 0,1.6970000267028809 C1.128999948501587,1.6970000267028809 2.2119998931884766,1.2480000257492065 3.009000062942505,0.4490000009536743 C3.805999994277954,-0.3499999940395355 4.252999782562256,-1.434000015258789 4.25,-2.562999963760376 C4.25,-4.2870001792907715 3.2109999656677246,-5.840000152587891 1.6180000305175781,-6.499000072479248 C0.02500000037252903,-7.1579999923706055 -1.8079999685287476,-6.790999889373779 -3.0260000228881836,-5.571000099182129 C-4.24399995803833,-4.35099983215332 -4.605999946594238,-2.5169999599456787 -3.943000078201294,-0.925000011920929z M3.2990000247955322,-11.633000373840332 C7.133999824523926,-10.241000175476074 9.682999610900879,-6.5929999351501465 9.670000076293945,-2.513000011444092 C9.656000137329102,-0.796999990940094 9.182999610900879,0.8849999904632568 8.300000190734863,2.3570001125335693 C7.86299991607666,3.000999927520752 7.392000198364258,3.621999979019165 6.889999866485596,4.2170000076293945 C6.889999866485596,4.2170000076293945 1.3700000047683716,11.527000427246094 1.3700000047683716,11.527000427246094 C1.0390000343322754,11.960000038146973 0.5249999761581421,12.21399974822998 -0.019999999552965164,12.21399974822998 C-0.5649999976158142,12.21399974822998 -1.0789999961853027,11.960000038146973 -1.409999966621399,11.527000427246094 C-1.409999966621399,11.527000427246094 -7.019999980926514,4.086999893188477 -7.019999980926514,4.086999893188477 C-7.489999771118164,3.437000036239624 -7.960000038146973,2.986999988555908 -8.329999923706055,2.367000102996826 C-10.402000427246094,-1.1469999551773071 -10.045999526977539,-5.584000110626221 -7.439000129699707,-8.722000122070312 C-4.831999778747559,-11.859999656677246 -0.5360000133514404,-13.024999618530273 3.2990000247955322,-11.633000373840332z"></path></g></g><g style="display: block;" transform="matrix(2.0000059604644775,0,0,2.0000059604644775,1949.1820068359375,893.2979736328125)" opacity="1"><g opacity="1" transform="matrix(3,0,0,3,0,0)"><path fill="#19A487" fill-opacity="1" d=" M-5.184999942779541,-1.2669999599456787 C-4.315000057220459,0.8259999752044678 -2.2690000534057617,2.187999963760376 -0.003000000026077032,2.183000087738037 C3.0810000896453857,2.183000087738037 5.580999851226807,-0.31700000166893005 5.580999851226807,-3.4010000228881836 C5.585999965667725,-5.666999816894531 4.223999977111816,-7.7129998207092285 2.13100004196167,-8.583000183105469 C0.03799999877810478,-9.45300006866455 -2.371999979019165,-8.973999977111816 -3.9739999771118164,-7.372000217437744 C-5.576000213623047,-5.769999980926514 -6.054999828338623,-3.359999895095825 -5.184999942779541,-1.2669999599456787z M1.125,-15.949000358581543 C7.6579999923706055,-15.366999626159668 12.673999786376953,-9.907999992370605 12.70199966430664,-3.3489999771118164 C12.684000015258789,-1.093999981880188 12.062000274658203,1.1160000562667847 10.902000427246094,3.049999952316284 C10.32800006866455,3.8970000743865967 9.708999633789062,4.711999893188477 9.048999786376953,5.493000030517578 C9.048999786376953,5.493000030517578 1.7970000505447388,15.097999572753906 1.7970000505447388,15.097999572753906 C1.3619999885559082,15.666999816894531 0.6859999895095825,16 -0.029999999329447746,16 C-0.7459999918937683,16 -1.4210000038146973,15.666999816894531 -1.8559999465942383,15.097999572753906 C-1.8559999465942383,15.097999572753906 -9.22700023651123,5.335999965667725 -9.22700023651123,5.335999965667725 C-9.845000267028809,4.468999862670898 -10.461999893188477,3.878000020980835 -10.947999954223633,3.062999963760376 C-12.489999771118164,0.4580000042915344 -13.039999961853027,-2.615999937057495 -12.498000144958496,-5.59499979019165 C-11.3100004196167,-12.045000076293945 -5.4079999923706055,-16.5310001373291 1.125,-15.949000358581543z"></path></g></g><g style="display: block;" transform="matrix(1.9999284744262695,0,0,1.9999284744262695,3037.172119140625,232.42300415039062)" opacity="1"><g opacity="1" transform="matrix(3,0,0,3,0,0)"><path fill="#19A487" fill-opacity="1" d=" M-6.210000038146973,-3.7690000534057617 C-6.210000038146973,-0.33899998664855957 -3.430000066757202,2.440999984741211 0,2.440999984741211 C0,2.440999984741211 -0.009999999776482582,2.440999984741211 -0.009999999776482582,2.440999984741211 C1.6390000581741333,2.444000005722046 3.2209999561309814,1.7910000085830688 4.388000011444092,0.6259999871253967 C5.554999828338623,-0.5389999747276306 6.210000038146973,-2.119999885559082 6.210000038146973,-3.7690000534057617 C6.210000038146973,-7.198999881744385 3.430000066757202,-9.979000091552734 0,-9.979000091552734 C-3.430000066757202,-9.979000091552734 -6.210000038146973,-7.198999881744385 -6.210000038146973,-3.7690000534057617z M4.806000232696533,-16.98900032043457 C10.395999908447266,-14.961999893188477 14.11400032043457,-9.645999908447266 14.100000381469727,-3.6989998817443848 C14.090999603271484,-1.1759999990463257 13.399999618530273,1.2979999780654907 12.100000381469727,3.4609999656677246 C11.484999656677246,4.401000022888184 10.817000389099121,5.306000232696533 10.100000381469727,6.171000003814697 C10.100000381469727,6.171000003814697 2.0299999713897705,16.820999145507812 2.0299999713897705,16.820999145507812 C1.5479999780654907,17.458999633789062 0.7950000166893005,17.833999633789062 -0.004999999888241291,17.833999633789062 C-0.8050000071525574,17.833999633789062 -1.5579999685287476,17.458999633789062 -2.0399999618530273,16.820999145507812 C-2.0399999618530273,16.820999145507812 -10.239999771118164,6.000999927520752 -10.239999771118164,6.000999927520752 C-10.930000305175781,5.040999889373779 -11.609999656677246,4.390999794006348 -12.149999618530273,3.4809999465942383 C-12.149999618530273,3.4809999465942383 -12.149999618530273,3.4210000038146973 -12.149999618530273,3.4210000038146973 C-15.166999816894531,-1.7029999494552612 -14.645999908447266,-8.170000076293945 -10.845999717712402,-12.744000434875488 C-7.046000003814697,-17.31800079345703 -0.7839999794960022,-19.016000747680664 4.806000232696533,-16.98900032043457z"></path></g></g><g style="display: block;" transform="matrix(1.9998811483383179,0,0,1.9998811483383179,3299.080078125,644.8319702148438)" opacity="1"><g opacity="1" transform="matrix(3,0,0,3,0,0)"><path fill="#19A487" fill-opacity="1" d=" M-3.946000099182129,-0.9639999866485596 C-3.2839999198913574,0.6290000081062317 -1.7280000448226929,1.6649999618530273 -0.003000000026077032,1.6610000133514404 C2.3440001010894775,1.6610000133514404 4.247000217437744,-0.24199999868869781 4.247000217437744,-2.5889999866485596 C4.250999927520752,-4.314000129699707 3.2149999141693115,-5.870999813079834 1.621999979019165,-6.5329999923706055 C0.028999999165534973,-7.195000171661377 -1.8049999475479126,-6.830999851226807 -3.0250000953674316,-5.611000061035156 C-4.244999885559082,-4.390999794006348 -4.607999801635742,-2.556999921798706 -3.946000099182129,-0.9639999866485596z M0.8560000061988831,-12.138999938964844 C5.828000068664551,-11.696000099182129 9.645999908447266,-7.540999889373779 9.666999816894531,-2.5490000247955322 C9.652999877929688,-0.8330000042915344 9.180000305175781,0.8489999771118164 8.29699993133545,2.321000099182129 C7.860000133514404,2.9649999141693115 7.388999938964844,3.5859999656677246 6.88700008392334,4.181000232696533 C6.88700008392334,4.181000232696533 1.3669999837875366,11.491000175476074 1.3669999837875366,11.491000175476074 C1.0360000133514404,11.923999786376953 0.5220000147819519,12.178000450134277 -0.023000000044703484,12.178000450134277 C-0.5680000185966492,12.178000450134277 -1.0820000171661377,11.923999786376953 -1.4129999876022339,11.491000175476074 C-1.4129999876022339,11.491000175476074 -7.0229997634887695,4.060999870300293 -7.0229997634887695,4.060999870300293 C-7.493000030517578,3.4010000228881836 -7.9629998207092285,2.9509999752044678 -8.333000183105469,2.3310000896453857 C-9.506999969482422,0.3479999899864197 -9.925999641418457,-1.9919999837875366 -9.512999534606934,-4.258999824523926 C-8.609000205993652,-9.168000221252441 -4.116000175476074,-12.581999778747559 0.8560000061988831,-12.138999938964844z"></path></g></g></g></svg>