<svg xmlns:xlink="http://www.w3.org/1999/xlink" data-v-5aa64d27="" xmlns="http://www.w3.org/2000/svg" width="44" height="45" viewBox="0 0 44 45" aria-labelledby="ServicosContaUnica-element" role="presentation" class="card__icon"><title id="ServicosContaUnica-element">ServicosContaUnica</title><g fill="currentColor"><g transform="translate(0 .496)" fill="none" fill-rule="evenodd"><circle fill="#19A487" cx="22" cy="22" r="22"></circle><path d="M19.369 9.21c-3.523 0-6.396 2.872-6.396 6.395a6.417 6.417 0 0 0 2.827 5.31c-3.258 1.4-5.567 4.632-5.567 8.394h1.827A7.296 7.296 0 0 1 19.369 22c1.256 0 2.427.328 3.454.885a7.315 7.315 0 0 0-1.627 4.597c0 4.025 3.283 7.309 7.309 7.309s7.309-3.284 7.309-7.31c0-4.025-3.283-7.308-7.309-7.308-1.595 0-3.08.524-4.283 1.399a9.258 9.258 0 0 0-1.284-.657 6.417 6.417 0 0 0 2.826-5.31c0-3.523-2.873-6.396-6.395-6.396zm0 1.827a4.554 4.554 0 0 1 4.568 4.568 4.554 4.554 0 0 1-4.568 4.568 4.554 4.554 0 0 1-4.568-4.568 4.554 4.554 0 0 1 4.568-4.568zM28.505 22a5.47 5.47 0 0 1 5.482 5.482 5.47 5.47 0 0 1-5.482 5.481 5.47 5.47 0 0 1-5.482-5.481A5.47 5.47 0 0 1 28.505 22zm2.998 2.998-2.998 2.998-2.084-2.085-1.314 1.314 2.741 2.74.657.629.657-.628 3.654-3.655-1.313-1.313z" fill="#FFFFFF" fill-rule="nonzero"></path></g></g></svg>