<svg xmlns:xlink="http://www.w3.org/1999/xlink" data-v-4f1c84a2="" xmlns="http://www.w3.org/2000/svg" width="37" height="41" viewBox="0 0 37 41" aria-labelledby="ChatIcon-element" role="presentation" class="floating__container__content__button__icon"><title id="ChatIcon-element">ChatIcon</title><g fill="#FFFFFF"><g id="Web" stroke="none" stroke-width="1" fill="none" fill-rule="evenodd"><g id="cities-site-web-home" transform="translate(-1200.000000, -732.000000)" fill="#FFFFFF" fill-rule="nonzero"><g id="chat" transform="translate(1200.321316, 732.000000)" fill="#FFFFFF"><path id="Shape" d="M24.1449643,31.8079535 L33.7513422,40.2824466 C34.149442,40.6914113 34.6796927,40.9459463 35.2479047,41 C35.9900726,41 36.4779777,40.3113367 36.4779777,39.0400676 L36.4779777,3.31687631 C36.4799711,2.43918972 36.1336375,1.59693859 35.514476,0.974914465 C34.8955927,0.352883015 34.05474,0.00226962665 33.1773463,0 L3.30466677,0 C2.42639447,0.00114396504 1.58472905,0.351199099 0.964681698,0.973523403 C0.344941839,1.59555485 -0.00195961157,2.43867722 8.54310578e-06,3.31694952 L8.54310578e-06,28.4907697 C-0.0019847971,29.369042 0.344919875,30.2121717 0.964681698,30.8341958 C1.58471441,31.4562273 2.42639447,31.8065478 3.30466677,31.8077192 L24.1449643,31.8079535 Z M2.46046847,28.491004 L2.46046847,3.31718381 C2.45822415,3.09125346 2.54602576,2.87389644 2.70474588,2.71317026 C2.86318778,2.55244409 3.07910981,2.46121242 3.30504016,2.46035582 L33.1777196,2.46035582 C33.40365,2.46121381 33.6195793,2.55244409 33.7780139,2.71317026 C33.9367414,2.87389644 34.0245393,3.09125346 34.0222915,3.31718381 L34.0222915,37.2400486 L25.076258,29.347605 L3.30541355,29.347605 C3.0794832,29.3464611 2.86355385,29.2555167 2.70511927,29.0947906 C2.54639183,28.9337789 2.45859388,28.7164218 2.46088548,28.490777 L2.46046847,28.491004 Z" fill="#FFFFFF"></path><path id="Path" d="M18.2161138,18.0401054 C18.8432922,18.0466832 19.4469836,17.8033028 19.8940268,17.3634492 C20.3410701,16.9235955 20.594419,16.3235941 20.5981797,15.6966647 C20.6018561,15.0694863 20.3553321,14.4666002 19.9134724,14.021607 C19.4716127,13.5766137 18.870762,13.3260762 18.2435397,13.3252187 C17.6163613,13.3246477 17.0146467,13.5737438 16.5719231,14.0176022 C16.1289212,14.4617462 15.8809682,15.0637537 15.883244,15.6909027 C15.8904096,16.3089294 16.1380803,16.8998084 16.5736436,17.3382124 C17.0092069,17.7766164 17.5980506,18.0285962 18.2161212,18.0400322 L18.2161138,18.0401054 Z" fill="#FFFFFF"></path><path id="Path" d="M9.92611947,18.0401054 C10.5515846,18.0435372 11.1527429,17.7981559 11.5971504,17.3580167 C12.0415799,16.9178776 12.2929667,16.3192599 12.295854,15.6938679 C12.2986893,15.0684027 12.0527377,14.4672445 11.6125985,14.0231298 C11.1721738,13.5789859 10.5733291,13.3278846 9.94786396,13.3252949 C9.32239879,13.322745 8.72153343,13.5689775 8.27771161,14.0096951 C7.83356763,14.4501198 7.58303746,15.0489645 7.58072331,15.6747225 C7.57760727,16.2993238 7.82298825,16.8998816 8.26284189,17.3437767 C8.70269553,17.7876351 9.3013059,18.0381653 9.92618537,18.040164 L9.92611947,18.0401054 Z" fill="#FFFFFF"></path><path id="Path" d="M26.5558935,18.0401409 C27.1813587,18.0435372 27.7825169,17.7981559 28.2269245,17.3580167 C28.671332,16.9178776 28.9227407,16.3192599 28.9256332,15.6938679 C28.9287493,15.0684027 28.6827973,14.4672445 28.2423726,14.0231298 C27.8022334,13.5789859 27.2033961,13.3278846 26.5779309,13.3252948 C25.9524657,13.3227409 25.3516004,13.5689775 24.9077785,14.0096951 C24.4636346,14.4501198 24.2131044,15.0489645 24.210808,15.6747225 C24.2088182,16.2990382 24.4544828,16.8990763 24.894051,17.3426052 C25.3339046,17.7861781 25.9316364,18.0369938 26.5559302,18.0401409 L26.5558935,18.0401409 Z" fill="#FFFFFF"></path></g></g></g></g></svg>