<svg xmlns:xlink="http://www.w3.org/1999/xlink" data-v-d42c3fa2="" xmlns="http://www.w3.org/2000/svg" width="16" height="16" viewBox="0 0 16 16" aria-labelledby="Whatsapp-element" role="presentation" class="contact__icon"><title id="Whatsapp-element">Whatsapp</title><g fill="#FFFFFF"><g id="Layout" stroke="none" stroke-width="1" fill="none" fill-rule="evenodd"><g id="05.1---botao-compartilhar" transform="translate(-1098.000000, -484.000000)" fill="#FFFFFF"><g id="Group-20" transform="translate(1098.000000, 484.000000)" fill="#FFFFFF"><path id="Fill-56" d="M8.09752381,14.264381 C6.76342857,14.264381 5.52380952,13.8697143 4.48609524,13.1862857 L1.96342857,13.9900952 L2.78247619,11.5702857 C1.99619048,10.4952381 1.53219048,9.17561905 1.53219048,7.75009524 C1.53219048,7.53828571 1.54285714,7.32571429 1.56495238,7.11771429 C1.88647619,3.82019048 4.69409524,1.23580952 8.09752381,1.23580952 C11.5451429,1.23580952 14.3779048,3.88571429 14.6407619,7.24190476 C14.656,7.41028571 14.6628571,7.57790476 14.6628571,7.75009524 C14.6628571,11.3432381 11.7165714,14.264381 8.09752381,14.264381 Z M15.9024762,7.5527619 C15.7965714,3.36304762 12.3451429,-2.27373675e-13 8.09752381,-2.27373675e-13 C3.90095238,-2.27373675e-13 0.479238095,3.28685714 0.296380952,7.41028571 C0.292571429,7.52380952 0.28952381,7.63657143 0.28952381,7.75009524 C0.28952381,9.216 0.698666667,10.583619 1.408,11.7531429 L-2.16546358e-14,15.9093333 L4.32457143,14.5348571 C5.44380952,15.1489524 6.72990476,15.5001905 8.09752381,15.5001905 C12.4114286,15.5001905 15.9062857,12.0312381 15.9062857,7.75009524 C15.9062857,7.68457143 15.9062857,7.61828571 15.9024762,7.5527619 L15.9024762,7.5527619 Z" fill="#FFFFFF"></path><path id="Fill-57" d="M11.6761905,9.31504762 C11.4826667,9.21980952 10.5432381,8.75885714 10.368,8.69714286 C10.192,8.63085714 10.064,8.60190476 9.9367619,8.79161905 C9.8087619,8.98209524 9.4392381,9.40952381 9.32952381,9.53371429 C9.216,9.66171429 9.10628571,9.67695238 8.9127619,9.58171429 C8.72304762,9.48647619 8.10514286,9.28914286 7.37371429,8.63847619 C6.80761905,8.13790476 6.41980952,7.51619048 6.31009524,7.32571429 C6.20038095,7.136 6.29866667,7.03314286 6.39390476,6.93866667 C6.48152381,6.85104762 6.58438095,6.71542857 6.68266667,6.60571429 C6.70857143,6.57295238 6.72990476,6.544 6.752,6.51428571 C6.79619048,6.44495238 6.82895238,6.37942857 6.87314286,6.288 C6.93866667,6.16 6.90590476,6.05028571 6.85866667,5.95504762 C6.81066667,5.85980952 6.42666667,4.92419048 6.26590476,4.544 C6.10895238,4.16380952 5.94819048,4.22933333 5.83466667,4.22933333 C5.72495238,4.22933333 5.59695238,4.21180952 5.46895238,4.21180952 C5.34095238,4.21180952 5.13295238,4.25904762 4.95771429,4.4487619 C4.78171429,4.6392381 4.2887619,5.09942857 4.2887619,6.03580952 C4.2887619,6.25447619 4.32838095,6.47390476 4.38704762,6.68266667 C4.58057143,7.35161905 4.99809524,7.9032381 5.07047619,7.99847619 C5.16571429,8.12342857 6.39390476,10.104381 8.33904762,10.8685714 C10.2872381,11.6251429 10.2872381,11.3729524 10.6384762,11.3401905 C10.9889524,11.3104762 11.7714286,10.8830476 11.928381,10.4373333 C12.0899048,9.99466667 12.0899048,9.61447619 12.0419048,9.53371429 C11.9946667,9.45752381 11.8666667,9.40952381 11.6761905,9.31504762" fill="#FFFFFF"></path></g></g></g></g></svg>